<svg width="40" height="30" viewBox="0 0 40 30" fill="none" xmlns="http://www.w3.org/2000/svg">
<path fill-rule="evenodd" clip-rule="evenodd" d="M35.5841 1.82941C37.3042 2.29154 38.665 3.65227 39.1271 5.37242C39.9743 8.50464 40 15.0001 40 15.0001C40 15.0001 40 21.5213 39.1528 24.6279C38.6906 26.348 37.3299 27.7087 35.6098 28.1709C32.5032 29.0181 20 29.0181 20 29.0181C20 29.0181 7.49679 29.0181 4.39025 28.1709C2.67009 27.7087 1.30937 26.348 0.847241 24.6279C0 21.4957 0 15.0001 0 15.0001C0 15.0001 0 8.50464 0.821565 5.3981C1.2837 3.67794 2.64442 2.31723 4.36457 1.8551C7.47112 1.00785 19.9743 0.982178 19.9743 0.982178C19.9743 0.982178 32.4775 0.982178 35.5841 1.82941ZM26.3671 15.0002L15.9949 21.0079V8.99245L26.3671 15.0002Z" fill="black"/>
</svg>
