<svg xmlns="http://www.w3.org/2000/svg" xmlns:xlink="http://www.w3.org/1999/xlink" width="500" zoomAndPan="magnify" viewBox="0 0 375 374.999991" height="500" preserveAspectRatio="xMidYMid meet" version="1.0"><defs><g/></defs><g fill="#000000" fill-opacity="1"><g transform="translate(0.0821357, 47.147649)"><g><path d="M 31.984375 -24.453125 C 34.597656 -21.609375 35.90625 -18.117188 35.90625 -13.984375 C 35.90625 -9.847656 34.597656 -6.347656 31.984375 -3.484375 C 29.378906 -0.617188 26.0625 0.8125 22.03125 0.8125 C 18.332031 0.8125 15.285156 -0.347656 12.890625 -2.671875 L 12.890625 14.140625 L 3.265625 14.140625 L 3.265625 -27.90625 L 12.78125 -27.90625 L 12.78125 -24.75 L 12.890625 -24.75 C 15.285156 -27.394531 18.332031 -28.71875 22.03125 -28.71875 C 26.0625 -28.71875 29.378906 -27.296875 31.984375 -24.453125 Z M 23.796875 -9.25 C 25.054688 -10.476562 25.6875 -12.050781 25.6875 -13.96875 C 25.6875 -15.894531 25.085938 -17.46875 23.890625 -18.6875 C 22.691406 -19.90625 21.113281 -20.515625 19.15625 -20.515625 C 17.269531 -20.515625 15.71875 -19.894531 14.5 -18.65625 C 13.28125 -17.425781 12.671875 -15.867188 12.671875 -13.984375 C 12.671875 -12.054688 13.296875 -10.476562 14.546875 -9.25 C 15.804688 -8.019531 17.34375 -7.40625 19.15625 -7.40625 C 21 -7.40625 22.546875 -8.019531 23.796875 -9.25 Z M 23.796875 -9.25 "/></g></g></g><g fill="#000000" fill-opacity="1"><g transform="translate(32.11866, 47.147649)"><g><path d="M 3.265625 0 L 3.265625 -27.90625 L 12.890625 -27.90625 L 12.890625 -23.890625 L 13 -23.890625 C 13.070312 -24.035156 13.1875 -24.210938 13.34375 -24.421875 C 13.507812 -24.640625 13.863281 -25.019531 14.40625 -25.5625 C 14.957031 -26.113281 15.539062 -26.601562 16.15625 -27.03125 C 16.769531 -27.46875 17.566406 -27.859375 18.546875 -28.203125 C 19.523438 -28.546875 20.523438 -28.71875 21.546875 -28.71875 C 22.597656 -28.71875 23.628906 -28.570312 24.640625 -28.28125 C 25.660156 -28 26.40625 -27.710938 26.875 -27.421875 L 27.640625 -26.984375 L 23.609375 -18.828125 C 22.410156 -19.835938 20.742188 -20.34375 18.609375 -20.34375 C 17.441406 -20.34375 16.441406 -20.085938 15.609375 -19.578125 C 14.773438 -19.078125 14.1875 -18.460938 13.84375 -17.734375 C 13.5 -17.003906 13.253906 -16.382812 13.109375 -15.875 C 12.960938 -15.375 12.890625 -14.976562 12.890625 -14.6875 L 12.890625 0 Z M 3.265625 0 "/></g></g></g><g fill="#000000" fill-opacity="1"><g transform="translate(54.092309, 47.147649)"><g><path d="M 5.90625 -3.3125 C 2.800781 -6.070312 1.25 -9.609375 1.25 -13.921875 C 1.25 -18.242188 2.863281 -21.789062 6.09375 -24.5625 C 9.320312 -27.332031 13.3125 -28.71875 18.0625 -28.71875 C 22.738281 -28.71875 26.679688 -27.320312 29.890625 -24.53125 C 33.109375 -21.738281 34.71875 -18.203125 34.71875 -13.921875 C 34.71875 -9.648438 33.144531 -6.125 30 -3.34375 C 26.863281 -0.570312 22.882812 0.8125 18.0625 0.8125 C 13.0625 0.8125 9.007812 -0.5625 5.90625 -3.3125 Z M 13.359375 -18.65625 C 12.109375 -17.425781 11.484375 -15.847656 11.484375 -13.921875 C 11.484375 -12.003906 12.082031 -10.4375 13.28125 -9.21875 C 14.476562 -8.007812 16.054688 -7.40625 18.015625 -7.40625 C 19.898438 -7.40625 21.445312 -8.019531 22.65625 -9.25 C 23.875 -10.476562 24.484375 -12.035156 24.484375 -13.921875 C 24.484375 -15.847656 23.859375 -17.425781 22.609375 -18.65625 C 21.359375 -19.894531 19.828125 -20.515625 18.015625 -20.515625 C 16.160156 -20.515625 14.609375 -19.894531 13.359375 -18.65625 Z M 13.359375 -18.65625 "/></g></g></g><g fill="#000000" fill-opacity="1"><g transform="translate(84.932165, 47.147649)"><g><path d="M 10.34375 -27.90625 L 17.140625 -12.734375 L 23.9375 -27.90625 L 35.359375 -27.90625 L 20.40625 0 L 13.875 0 L -1.09375 -27.90625 Z M 10.34375 -27.90625 "/></g></g></g><g fill="#000000" fill-opacity="1"><g transform="translate(114.085806, 47.147649)"><g><path d="M 4.1875 -43.46875 C 5.3125 -44.59375 6.65625 -45.15625 8.21875 -45.15625 C 9.78125 -45.15625 11.117188 -44.59375 12.234375 -43.46875 C 13.359375 -42.34375 13.921875 -41 13.921875 -39.4375 C 13.921875 -37.882812 13.359375 -36.546875 12.234375 -35.421875 C 11.117188 -34.296875 9.78125 -33.734375 8.21875 -33.734375 C 6.65625 -33.734375 5.3125 -34.296875 4.1875 -35.421875 C 3.0625 -36.546875 2.5 -37.882812 2.5 -39.4375 C 2.5 -41 3.0625 -42.34375 4.1875 -43.46875 Z M 3.265625 -27.90625 L 3.265625 0 L 12.890625 0 L 12.890625 -27.90625 Z M 3.265625 -27.90625 "/></g></g></g><g fill="#000000" fill-opacity="1"><g transform="translate(125.398248, 47.147649)"><g><path d="M 31.5 -12.625 L 11.265625 -12.625 C 11.265625 -10.664062 11.898438 -9.210938 13.171875 -8.265625 C 14.441406 -7.328125 15.816406 -6.859375 17.296875 -6.859375 C 18.859375 -6.859375 20.09375 -7.066406 21 -7.484375 C 21.90625 -7.898438 22.941406 -8.722656 24.109375 -9.953125 L 31.0625 -6.46875 C 28.164062 -1.613281 23.34375 0.8125 16.59375 0.8125 C 12.382812 0.8125 8.773438 -0.625 5.765625 -3.5 C 2.753906 -6.382812 1.25 -9.859375 1.25 -13.921875 C 1.25 -17.984375 2.753906 -21.460938 5.765625 -24.359375 C 8.773438 -27.265625 12.382812 -28.71875 16.59375 -28.71875 C 21.019531 -28.71875 24.617188 -27.441406 27.390625 -24.890625 C 30.171875 -22.335938 31.5625 -18.679688 31.5625 -13.921875 C 31.5625 -13.273438 31.539062 -12.84375 31.5 -12.625 Z M 11.53125 -17.953125 L 22.140625 -17.953125 C 21.921875 -19.398438 21.347656 -20.515625 20.421875 -21.296875 C 19.503906 -22.078125 18.316406 -22.46875 16.859375 -22.46875 C 15.265625 -22.46875 13.992188 -22.050781 13.046875 -21.21875 C 12.109375 -20.382812 11.601562 -19.296875 11.53125 -17.953125 Z M 11.53125 -17.953125 "/></g></g></g><g fill="#000000" fill-opacity="1"><g transform="translate(153.083261, 47.147649)"><g><path d="M 20.40625 0 L 13.875 0 L -1.09375 -27.90625 L 10.015625 -27.90625 L 16.8125 -12.84375 L 23.5 -27.90625 L 30.140625 -27.90625 L 36.828125 -12.84375 L 43.640625 -27.90625 L 54.734375 -27.90625 L 39.765625 0 L 33.234375 0 L 26.828125 -14.421875 Z M 20.40625 0 "/></g></g></g><g fill="#000000" fill-opacity="1"><g transform="translate(201.601142, 47.147649)"><g><path d="M 9.46875 -11.640625 C 11.207031 -11.640625 12.679688 -11.03125 13.890625 -9.8125 C 15.109375 -8.601562 15.71875 -7.128906 15.71875 -5.390625 C 15.71875 -3.679688 15.109375 -2.21875 13.890625 -1 C 12.679688 0.207031 11.207031 0.8125 9.46875 0.8125 C 7.757812 0.8125 6.296875 0.207031 5.078125 -1 C 3.867188 -2.21875 3.265625 -3.679688 3.265625 -5.390625 C 3.265625 -7.128906 3.867188 -8.601562 5.078125 -9.8125 C 6.296875 -11.03125 7.757812 -11.640625 9.46875 -11.640625 Z M 9.46875 -11.640625 "/></g></g></g></svg>