<svg xmlns="http://www.w3.org/2000/svg" xmlns:xlink="http://www.w3.org/1999/xlink" width="2000" zoomAndPan="magnify" viewBox="0 0 1500 449.999984" height="600" preserveAspectRatio="xMidYMid meet" version="1.0"><defs><g/></defs><g fill="#000000" fill-opacity="1"><g transform="translate(0.558304, 325.19876)"><g><path d="M 217.453125 -166.234375 C 235.203125 -146.878906 244.078125 -123.148438 244.078125 -95.046875 C 244.078125 -66.941406 235.203125 -43.148438 217.453125 -23.671875 C 199.703125 -4.191406 177.144531 5.546875 149.78125 5.546875 C 124.625 5.546875 103.910156 -2.34375 87.640625 -18.125 L 87.640625 96.15625 L 22.1875 96.15625 L 22.1875 -189.71875 L 86.90625 -189.71875 L 86.90625 -168.265625 L 87.640625 -168.265625 C 103.910156 -186.265625 124.625 -195.265625 149.78125 -195.265625 C 177.144531 -195.265625 199.703125 -185.585938 217.453125 -166.234375 Z M 161.78125 -62.859375 C 170.289062 -71.242188 174.546875 -81.96875 174.546875 -95.03125 C 174.546875 -108.101562 170.476562 -118.769531 162.34375 -127.03125 C 154.207031 -135.289062 143.484375 -139.421875 130.171875 -139.421875 C 117.347656 -139.421875 106.804688 -135.226562 98.546875 -126.84375 C 90.296875 -118.457031 86.171875 -107.859375 86.171875 -95.046875 C 86.171875 -81.972656 90.421875 -71.242188 98.921875 -62.859375 C 107.429688 -54.484375 117.847656 -50.296875 130.171875 -50.296875 C 142.742188 -50.296875 153.28125 -54.484375 161.78125 -62.859375 Z M 161.78125 -62.859375 "/></g></g></g><g fill="#000000" fill-opacity="1"><g transform="translate(218.323361, 325.19876)"><g><path d="M 22.1875 0 L 22.1875 -189.71875 L 87.640625 -189.71875 L 87.640625 -162.34375 L 88.390625 -162.34375 C 88.878906 -163.332031 89.675781 -164.566406 90.78125 -166.046875 C 91.894531 -167.523438 94.300781 -170.113281 98 -173.8125 C 101.695312 -177.507812 105.640625 -180.835938 109.828125 -183.796875 C 114.023438 -186.753906 119.453125 -189.40625 126.109375 -191.75 C 132.765625 -194.09375 139.546875 -195.265625 146.453125 -195.265625 C 153.597656 -195.265625 160.617188 -194.273438 167.515625 -192.296875 C 174.421875 -190.328125 179.476562 -188.359375 182.6875 -186.390625 L 187.859375 -183.421875 L 160.5 -127.953125 C 152.363281 -134.859375 141.019531 -138.3125 126.46875 -138.3125 C 118.582031 -138.3125 111.800781 -136.582031 106.125 -133.125 C 100.457031 -129.675781 96.453125 -125.484375 94.109375 -120.546875 C 91.773438 -115.617188 90.113281 -111.429688 89.125 -107.984375 C 88.132812 -104.535156 87.640625 -101.820312 87.640625 -99.84375 L 87.640625 0 Z M 22.1875 0 "/></g></g></g><g fill="#000000" fill-opacity="1"><g transform="translate(367.687037, 325.19876)"><g><path d="M 40.125 -22.5625 C 19.039062 -41.300781 8.5 -65.335938 8.5 -94.671875 C 8.5 -124.003906 19.46875 -148.101562 41.40625 -166.96875 C 63.351562 -185.832031 90.476562 -195.265625 122.78125 -195.265625 C 154.582031 -195.265625 181.390625 -185.769531 203.203125 -166.78125 C 225.023438 -147.800781 235.9375 -123.765625 235.9375 -94.671875 C 235.9375 -65.578125 225.273438 -41.597656 203.953125 -22.734375 C 182.628906 -3.878906 155.570312 5.546875 122.78125 5.546875 C 88.757812 5.546875 61.207031 -3.820312 40.125 -22.5625 Z M 90.78125 -126.84375 C 82.28125 -118.457031 78.03125 -107.734375 78.03125 -94.671875 C 78.03125 -81.609375 82.097656 -70.945312 90.234375 -62.6875 C 98.367188 -54.425781 109.09375 -50.296875 122.40625 -50.296875 C 135.226562 -50.296875 145.769531 -54.484375 154.03125 -62.859375 C 162.289062 -71.242188 166.421875 -81.847656 166.421875 -94.671875 C 166.421875 -107.734375 162.164062 -118.457031 153.65625 -126.84375 C 145.15625 -135.226562 134.738281 -139.421875 122.40625 -139.421875 C 109.832031 -139.421875 99.289062 -135.226562 90.78125 -126.84375 Z M 90.78125 -126.84375 "/></g></g></g><g fill="#000000" fill-opacity="1"><g transform="translate(577.317865, 325.19876)"><g><path d="M 70.265625 -189.71875 L 116.484375 -86.53125 L 162.71875 -189.71875 L 240.375 -189.71875 L 138.671875 0 L 94.296875 0 L -7.390625 -189.71875 Z M 70.265625 -189.71875 "/></g></g></g><g fill="#000000" fill-opacity="1"><g transform="translate(775.486813, 325.19876)"><g><path d="M 28.46875 -295.46875 C 36.113281 -303.113281 45.238281 -306.9375 55.84375 -306.9375 C 66.445312 -306.9375 75.566406 -303.113281 83.203125 -295.46875 C 90.847656 -287.832031 94.671875 -278.710938 94.671875 -268.109375 C 94.671875 -257.515625 90.847656 -248.394531 83.203125 -240.75 C 75.566406 -233.101562 66.445312 -229.28125 55.84375 -229.28125 C 45.238281 -229.28125 36.113281 -233.101562 28.46875 -240.75 C 20.832031 -248.394531 17.015625 -257.515625 17.015625 -268.109375 C 17.015625 -278.710938 20.832031 -287.832031 28.46875 -295.46875 Z M 22.1875 -189.71875 L 22.1875 0 L 87.640625 0 L 87.640625 -189.71875 Z M 22.1875 -189.71875 "/></g></g></g><g fill="#000000" fill-opacity="1"><g transform="translate(852.382, 325.19876)"><g><path d="M 214.125 -85.796875 L 76.546875 -85.796875 C 76.546875 -72.484375 80.859375 -62.617188 89.484375 -56.203125 C 98.117188 -49.796875 107.488281 -46.59375 117.59375 -46.59375 C 128.195312 -46.59375 136.582031 -48.007812 142.75 -50.84375 C 148.914062 -53.6875 155.941406 -59.296875 163.828125 -67.671875 L 211.15625 -44 C 191.4375 -10.96875 158.648438 5.546875 112.796875 5.546875 C 84.191406 5.546875 59.65625 -4.25 39.1875 -23.84375 C 18.726562 -43.445312 8.5 -67.054688 8.5 -94.671875 C 8.5 -122.285156 18.726562 -145.953125 39.1875 -165.671875 C 59.65625 -185.398438 84.191406 -195.265625 112.796875 -195.265625 C 142.867188 -195.265625 167.332031 -186.570312 186.1875 -169.1875 C 205.050781 -151.8125 214.484375 -126.972656 214.484375 -94.671875 C 214.484375 -90.234375 214.363281 -87.273438 214.125 -85.796875 Z M 78.40625 -122.03125 L 150.515625 -122.03125 C 149.035156 -131.894531 145.148438 -139.476562 138.859375 -144.78125 C 132.578125 -150.082031 124.503906 -152.734375 114.640625 -152.734375 C 103.796875 -152.734375 95.164062 -149.894531 88.75 -144.21875 C 82.34375 -138.550781 78.894531 -131.15625 78.40625 -122.03125 Z M 78.40625 -122.03125 "/></g></g></g><g fill="#000000" fill-opacity="1"><g transform="translate(1040.5681, 325.19876)"><g><path d="M 138.671875 0 L 94.296875 0 L -7.390625 -189.71875 L 68.046875 -189.71875 L 114.265625 -87.28125 L 159.765625 -189.71875 L 204.875 -189.71875 L 250.359375 -87.28125 L 296.59375 -189.71875 L 372.03125 -189.71875 L 270.328125 0 L 225.953125 0 L 182.3125 -98 Z M 138.671875 0 "/></g></g></g><g fill="#000000" fill-opacity="1"><g transform="translate(1370.363524, 325.19876)"><g><path d="M 64.34375 -79.140625 C 76.175781 -79.140625 86.222656 -75.007812 94.484375 -66.75 C 102.742188 -58.488281 106.875 -48.441406 106.875 -36.609375 C 106.875 -25.023438 102.742188 -15.101562 94.484375 -6.84375 C 86.222656 1.414062 76.175781 5.546875 64.34375 5.546875 C 52.757812 5.546875 42.835938 1.414062 34.578125 -6.84375 C 26.316406 -15.101562 22.1875 -25.023438 22.1875 -36.609375 C 22.1875 -48.441406 26.316406 -58.488281 34.578125 -66.75 C 42.835938 -75.007812 52.757812 -79.140625 64.34375 -79.140625 Z M 64.34375 -79.140625 "/></g></g></g></svg>